<svg id="svg1307" xmlns="http://www.w3.org/2000/svg" viewBox="0 0 1898.77 950"><defs><style>.cls-1{fill:#fcd116;}</style></defs><title>half-sun</title><path class="cls-1" d="M1793.37,854.41l-397.48,44.34q-2-17.65-5.35-34.87l359.83-59.13L1683.27,750l-302,75.21a448.82,448.82,0,0,0-15.17-43.93l-.32-.78c-.37-.93-.75-1.85-1.14-2.77s-.75-1.81-1.13-2.71c-.11-.28-.23-.56-.35-.83a445,445,0,0,0-22-44.78l268.44-157.36,9.35-85.54L1320.15,695.75q-10-14.55-21.23-28.46L1611.17,418l8.59-140.48-141.36,7.71L1228.69,597.61q-13.89-11.07-28.44-20.88l212.63-296.25-86.16,8.73L1166.33,556a447.22,447.22,0,0,0-41.74-20.32l-.83-.35-2.72-1.13c-.92-.38-1.84-.77-2.77-1.14l-.77-.31a444.91,444.91,0,0,0-47.27-16.12l78.54-301.09-53.87-67.1-63.31,359.21q-17.34-3.23-35.14-5.11L1041,105.4,947.69,0,853.18,105.4l44.35,397.49q-17.65,2-34.88,5.35L803.52,148.4l-54.75,67.1,75.21,302a445.77,445.77,0,0,0-43.91,15.16l-.8.32-2.75,1.13-2.73,1.14-.82.35a446.24,446.24,0,0,0-44.79,22L570.82,289.21l-85.54-9.35L694.52,578.62q-14.55,10-28.46,21.24L416.73,287.6,276.25,279,284,420.37,596.38,670.08Q585.31,684,575.5,698.52L279.25,485.89,288,572.05,554.73,732.44a445.06,445.06,0,0,0-20.34,41.82c-.11.24-.22.49-.32.74l-1.17,2.8c-.37.89-.74,1.78-1.1,2.68l-.35.87a447.31,447.31,0,0,0-16.09,47.2L214.27,750l-67.1,53.88,359.22,63.3q-3.24,17.34-5.11,35.14l-397.11-44.5L0,950H1897.54l1.23-1.09Z"/></svg>