<svg id="Lager_1" data-name="Lager 1" xmlns="http://www.w3.org/2000/svg" viewBox="0 0 163.65 198.94"><defs><style>.cls-1{fill:#fff;}</style></defs><title>worldskills_white_CMYK</title><circle class="cls-1" cx="68.15" cy="193" r="5.94"/><path class="cls-1" d="M314.56,213.3S301,207,290.76,197.83a89.12,89.12,0,0,0,11.68,6.76,133.4,133.4,0,0,0,19.87,7.82,32.22,32.22,0,0,1-6.62-3.15s-18.46-10.2-19.27-11.69c0,0,7.18,4.06,8,4.46,0,0,1.8,1,2.29,1.28,0,0,0-.4-1.49-1,0,0-8.29-5-10.39-6.34a86.36,86.36,0,0,1-25.58-25.72s-4.39.1-6.72,2.52c0,0-1.22,1.57-6.89,1.52,0,0,11.47,16.26,26.53,25.07,0,0,5.9,3.81,14.78,8.55a139.39,139.39,0,0,1-18.55-10.31c-14.76-10.72-21.91-20.62-23.34-22.73a4.14,4.14,0,0,1-.22-.43.09.09,0,0,0-.16.08c.07.15,5.68,11.83,25.67,24.56a149.28,149.28,0,0,0,33.92,17.54s0,0,0,0a0,0,0,0,0,0,0A150.54,150.54,0,0,1,281.72,200a146.7,146.7,0,0,0,17.94,9.38c4.37,2.27,9.32,4.67,14.56,6.92a12.62,12.62,0,0,1-2.79-2.54s2,.84,3.13,1.24a3.69,3.69,0,0,1-1.44-1.4s5.05,2,6.09,2.2C319.21,215.75,316.73,214.47,314.56,213.3Zm-59.13-37.76c2.08,2.92,8.8,11.57,21.48,21.06C263,187.06,257.18,178.5,255.43,175.54Z" transform="translate(-238.51 -38.66)"/><path class="cls-1" d="M288.28,134.46s.05,0,.08,0c-1.67-1.32-3.3-2.54-4.89-3.64a99,99,0,0,0-32.37-15.07l-.55-.17a.09.09,0,0,0-.11,0,.09.09,0,0,0,.06.11,139.55,139.55,0,0,1,32.28,15.71c1.57,1,3.18,2.13,4.82,3.31l.19-.08q-2.51-1.82-4.91-3.38a144,144,0,0,0-31-15.29,100.28,100.28,0,0,1,31.54,14.87C285,132,286.63,133.15,288.28,134.46Z" transform="translate(-238.51 -38.66)"/><path class="cls-1" d="M381.57,141.78l-.34-.31v0Z" transform="translate(-238.51 -38.66)"/><path class="cls-1" d="M399.14,165.28,399,165a52.18,52.18,0,0,1,2.88,11.19A41.87,41.87,0,0,0,399.14,165.28Z" transform="translate(-238.51 -38.66)"/><path class="cls-1" d="M380.57,141.9l-.17-.14h0Z" transform="translate(-238.51 -38.66)"/><path class="cls-1" d="M288.92,135l.08,0-.64-.51s-.05,0-.08,0C288.5,134.62,288.71,134.8,288.92,135Z" transform="translate(-238.51 -38.66)"/><path class="cls-1" d="M288.48,135.15c-.23-.17-.47-.33-.69-.5l-.19.08.68.5Z" transform="translate(-238.51 -38.66)"/><path class="cls-1" d="M380.4,141.77h0l-.08-.07v0Z" transform="translate(-238.51 -38.66)"/><path class="cls-1" d="M380.31,141.71v0a1.09,1.09,0,0,1-.17-.13h0Z" transform="translate(-238.51 -38.66)"/><path class="cls-1" d="M381.58,141.79Z" transform="translate(-238.51 -38.66)"/><path class="cls-1" d="M380.39,140.85l0,0a.49.49,0,0,0,0,.12l0,0Z" transform="translate(-238.51 -38.66)"/><path class="cls-1" d="M386.26,146.8a.28.28,0,0,1,.06.06c1.05,1,2,2.09,2.93,3.15-.25-.32-.51-.64-.77-.95C387.76,148.29,387,147.54,386.26,146.8Z" transform="translate(-238.51 -38.66)"/><path class="cls-1" d="M385.37,146l.89.85C386.15,146.69,385.85,146.39,385.37,146Z" transform="translate(-238.51 -38.66)"/><path class="cls-1" d="M377.3,175.08c-.32-.45-.64-.9-1-1.34l-.18-.23-.14-.17a36.18,36.18,0,0,0-4.26-4.41l-1.08-.91a58.05,58.05,0,0,0-7.82-5.37,72.14,72.14,0,0,0-11.18-5.27l0,0h0c-1.18-.56-2.49-1.11-3.91-1.65l-.39-.15-.65-.24-.26-.09-.08,0-.36-.13-.84-.3c-2.22-.78-4.64-1.54-7.19-2.28l-1.66-.47c-3.76-1.06-7.77-2.07-11.88-3-8.69-2-17.75-3.85-25.5-5.27l-.32-.06h0l-.12,0-1.42-.26c-10.45-1.89-18.07-3.05-18.27-3.07l-2.9-.43,2.76-1.05q4.82-1.68,8.78-3.22l-.69-.5a129.05,129.05,0,0,0-38-18.49s-5.21,2.85-4.19,7.6a8.26,8.26,0,0,1-6,7.54s37,8.45,56.81,28.71c0,0,18.8,16.05,26.57,48.4a31.34,31.34,0,0,0-.15-5.79,51.93,51.93,0,0,1,2.1,5.68,20.48,20.48,0,0,0-.38-3.43,52.23,52.23,0,0,1,2.86,9.54s-3-24.79-16.11-47.27c0,0,9.44,3.79,20.31,44.26,0,0-4.83-33.83-19-52.21a56,56,0,0,0-4.08-5.46,105,105,0,0,0-8.06-9.64l.15,0c10.82,10.2,21,23.93,25.47,41.63a.07.07,0,0,0,.1.06.09.09,0,0,0,.07-.1c-4.49-17.63-14.56-31.33-25.32-41.53,7.6,1.41,16.37,3.17,24.76,5.14,5.16,17.52,9.63,39.4,9.17,61.71,0,0,.68-18.85.66-22.26,0,0,1.07,9.62.72,12.58a52.73,52.73,0,0,0,.71-7.08s1.23,4.89,1.57,17.11c0,0,2.1-8.55,1.75-32.65a137.77,137.77,0,0,0-2.78-26.37l1.71.49c.47,1.75.89,3.45,1.25,5.06,0,0,6.42,23.16,4.27,55.65,0,0,3.11-5.68,4.36-28.25a156.62,156.62,0,0,0-2.74-30.18l.86.31c.33,1.51.64,3.05.92,4.61,0,0,4.54,21.74.44,43.64,0,0-1.09,10.6-2.53,14.5,0,0,2.38-4.53,4.4-23.76,0,0,2.16-13.77-1.24-32.36,0,0-.5-2.72-1.29-6.37l.67.25c.15.65.3,1.29.44,1.94A120.41,120.41,0,0,1,349.71,196a.19.19,0,0,0,.16.2.18.18,0,0,0,.19-.16,121,121,0,0,0-1.79-37.76l-.39-1.7c1.22.48,2.37,1,3.4,1.45h0l.07,0h0a72.43,72.43,0,0,1,11.36,5.39,115.61,115.61,0,0,1-13.34,46.63s4.72-7.33,6.36-12.57c0,0-1.79,7.62-2.83,9.76.52-.9,1.9-3.27,3-4.76,0,0-.57,3.44-5.84,12.46,0,0,14.46-14.76,20.38-46.14.41.34.81.68,1.2,1a76.57,76.57,0,0,1-3.55,20.24s-4.91,17.15-15,28.8c0,0,13.82-8.56,22.95-44.28.33.45.66.9,1,1.37a130.57,130.57,0,0,1-12.37,29.45.16.16,0,0,0,.07.23.17.17,0,0,0,.23-.06,129.88,129.88,0,0,0,12.31-29.23c.09-.31.18-.62.26-.92Zm-70.66-21.85a101.81,101.81,0,0,0-8.65-9l1.27.24A102.34,102.34,0,0,1,306.64,153.23ZM347,158s0,0,0,0,0,0,0,0-.14-.73-.41-2l.08,0C346.82,157.27,347,158,347,158Z" transform="translate(-238.51 -38.66)"/><path class="cls-1" d="M401.89,176.17A52.18,52.18,0,0,0,399,165a50.57,50.57,0,0,0-8.5-13.65,65.59,65.59,0,0,0-8.93-9.54h0a159.37,159.37,0,0,0-1.83-23.34c-2.15-20.27-9.39-42.94-28.92-57A31.09,31.09,0,0,0,347.3,59a.17.17,0,0,0-.24.07.16.16,0,0,0,.06.23c.1.06,9.9,5.61,18.89,20.46,5.43,9,11.28,22.63,13.88,42.11.27,3.37.41,6.66.44,9.81,0,1.68,0,3.34,0,5-.31-9.28-2.74-41.83-21.46-65.06,0,0-5.76-7.36-12.07-11.35,0,0,.14,4.19-8,8.07,0,0-4.46,2.06-9.15,8.25,0,0,20.48,10.82,29.69,43.65,0,0,.83,2.9,1.72,7.91-2.25-1.15-4.47-2.21-6.64-3.18a167.6,167.6,0,0,0-17.67-6.63c-2.24-6.19-4.55-11.91-6.87-17.21-9.12-22.53-23.4-49-43.26-61.3-1-.71-1.49-1.06-1.52-1.07a.18.18,0,0,0-.24.05.17.17,0,0,0,.06.24c.1.07,10.71,6.9,23.73,25,7.3,10.13,16.28,25.17,24.62,46.15,1,2.7,1.91,5.37,2.79,8l-1-.29C330.77,106.09,325,92.47,318.4,81.59c0,0-14-24.79-34.18-41.19,0,0,2.54,5.26-11.56,10.47-5.34,2-5.76,8.35-7.33,16.4,0,0,20.74,6.07,45,44.88,0,0,.51,1,1.38,2.88.12.27.26.56.39.86.47-1,.73-1.63.73-1.66l.22-.55.59.08a131.28,131.28,0,0,1,18.22,4.2c1.27.37,2.51.75,3.73,1.14,0-.12-.08-.24-.13-.36l.94.31c0,.12.07.23.11.35l.08,0c0-.11-.07-.22-.11-.34l.21.07c.05.12.08.23.12.35l.42.13-.12-.33c4.36,1.49,9.07,3.27,13.89,5.35,3.3,1.42,6.78,3,10.31,4.88a1,1,0,0,1,0,.17,127.05,127.05,0,0,1,18.83,11.87h0a1.09,1.09,0,0,0,.17.13l.08.07.17.14.67.55.35.29a74.48,74.48,0,0,1,8,7.73A49.16,49.16,0,0,1,400,173.31a.08.08,0,0,0,.1.07.07.07,0,0,0,.07-.09,47.63,47.63,0,0,0-6.58-17.51c-.61-1-1.25-2-1.93-2.93A49.29,49.29,0,0,1,399,165.32c5.52,13.78,3.47,29.1-6.05,45.63q-2.22,3.86-5,7.78a.06.06,0,0,0,0,.08s.06,0,.07,0a100.07,100.07,0,0,0,5.55-8.79C400.34,198,403.1,186.73,401.89,176.17Zm-35.6-96.66a70.58,70.58,0,0,0-12.9-15.9c16.47,13.3,23.34,33.12,25.78,51.48C376.24,99.06,371.1,87.45,366.29,79.51ZM308.9,63.7c-9.69-13.43-18-20.67-21.76-23.53,18.91,12,32.7,36.9,41.75,58.7A202.47,202.47,0,0,0,308.9,63.7Zm25.27,48.69c.72,1.87,1.44,3.78,2.15,5.75l-.19-.06C335.51,116.21,334.85,114.31,334.17,112.39Zm1.24,6.22-.14-.36c0-.1-.07-.19-.1-.28l.95.29c0,.09.07.19.1.29l.12.38Zm1,.35c0-.13-.08-.26-.12-.38l-.1-.3.19.06c0,.1.08.2.11.3l.14.39ZM351,124.55c-4.85-2.09-9.59-3.88-14-5.38l-.14-.39-.1-.3a166.38,166.38,0,0,1,17.53,6.58c2.19,1,4.45,2.06,6.73,3.23,0,.17.06.35.09.52s.07.39.11.59C357.77,127.58,354.31,126,351,124.55Zm29.26.6c.55,5.06.88,10.5.94,16.32l-.84-.72c0-.19,0-.37,0-.56.11-2.79.16-5.65.13-8.56Q380.47,128.47,380.29,125.15Zm.11,16.48c0-.22,0-.69,0-.65.28.24.57.48.84.73,0,.2,0,.4,0,.61C381,142.09,380.68,141.85,380.4,141.63Zm5.92,5.23a.28.28,0,0,0-.06-.06l-.89-.85-.58-.54c-1-1-2.1-1.9-3.2-2.8,0-.2,0-.39,0-.59a68.45,68.45,0,0,1,6.9,7c.26.31.52.63.77.95C388.34,149,387.37,147.9,386.32,146.86Z" transform="translate(-238.51 -38.66)"/><path class="cls-1" d="M385.78,147.4s-17.27-18-54.14-28.7a130.35,130.35,0,0,0-18.11-4.19s-3.15,8-8,12.43c-4.65,4.29-15.44,8.67-26.71,12.59,0,0,53.68,8,73.08,17.12,0,0,48.16,16.6,22.15,47.25a55.09,55.09,0,0,1-12.63,11.44s1.37-.25,4.21-2.42c0,0-2.34,3.67-9.81,8.15,0,0,6.47-2,17.59-10.45,0,0,14.36-10.73,16.12-26.56a35.48,35.48,0,0,0-1.37-16,27.55,27.55,0,0,1,4.45,19.52c-2.05,14.69-14.56,29.38-37.2,43.65a.07.07,0,0,0,.08.11c22.67-14.29,35.21-29,37.26-43.75a27.68,27.68,0,0,0-4.31-19.36h0c1.17,1.31,4.87,6.2,4.9,15.83,0,0,1.7,24.68-33.39,46.35,0,0,6.61-2.2,16.54-9.1,0,0,33.45-21.43,19.49-56.22,0,0,8.43,13.19,1.44,32.36,0,0-3.77,13-20.86,27.64,0,0,8-3.66,15.2-15,0,0,9-12.2,9.11-25.85C400.88,184.25,402.79,164.27,385.78,147.4Z" transform="translate(-238.51 -38.66)"/></svg>