<?xml version="1.0" encoding="utf-8"?>
<!-- Generator: Adobe Illustrator 22.1.0, SVG Export Plug-In . SVG Version: 6.00 Build 0)  -->
<svg version="1.1" id="Capa_1" xmlns="http://www.w3.org/2000/svg" xmlns:xlink="http://www.w3.org/1999/xlink" x="0px" y="0px"
	 viewBox="0 0 800 800" style="enable-background:new 0 0 800 800;" xml:space="preserve">
<style type="text/css">
	.st0{fill:#ED1F34;}
	.st1{fill:#103B9B;}
	.st2{fill:#FFFFFF;}
	.st3{fill:#FFE000;}
</style>
<g>
	<path class="st0" d="M61.6,650.2l351.4-234.3h280.3c6.6,0,11.9-5.3,11.9-11.9v-1h27.8v1c0,6.6,5.3,11.9,11.9,11.9h39.7v234.3H61.6z
		"/>
	<path class="st0" d="M744.8,416.9c-7.1,0-12.9-5.8-12.9-12.9h-25.8c0,7.1-5.8,12.9-12.9,12.9h-280L64.9,649.2h718.7V416.9H744.8z"
		/>
	<path class="st1" d="M705.1,405v-1c0-6.6-5.3-11.9-11.9-11.9H412.9L61.6,157.8h723v234.3h-39.7c-6.6,0-11.9,5.3-11.9,11.9v1H705.1z
		"/>
	<path class="st1" d="M744.8,391.1h38.7V158.8H64.9l348.4,232.3h280c7.1,0,12.9,5.8,12.9,12.9h25.8
		C731.9,396.9,737.7,391.1,744.8,391.1z"/>
	<path class="st2" d="M159.5,464.2c33.2,0,60.2-27,60.2-60.2c0-33.2-27-60.2-60.2-60.2s-60.2,27-60.2,60.2
		C99.3,437.2,126.3,464.2,159.5,464.2z M159.5,363.6c22.3,0,40.4,18.1,40.4,40.4c0,22.3-18.1,40.4-40.4,40.4s-40.4-18.1-40.4-40.4
		C119.1,381.7,137.2,363.6,159.5,363.6z"/>
	<path class="st2" d="M386.1,404L35.1,170V638L386.1,404z M159.5,318c47.4,0,86,38.6,86,86c0,47.4-38.6,86-86,86s-86-38.6-86-86
		C73.5,356.6,112.1,318,159.5,318z"/>
	<path class="st3" d="M159.5,490c47.4,0,86-38.6,86-86s-38.6-86-86-86s-86,38.6-86,86C73.5,451.4,112.1,490,159.5,490z M159.5,343.8
		c33.2,0,60.2,27,60.2,60.2c0,33.2-27,60.2-60.2,60.2s-60.2-27-60.2-60.2C99.3,370.8,126.3,343.8,159.5,343.8z"/>
	<circle class="st3" cx="159.5" cy="404" r="40.4"/>
	<path d="M796.4,133H22.2c0,0,0,0,0,0c-0.4,0-0.8,0-1.2,0.1c-0.3,0-0.6,0.1-0.9,0.1c-0.1,0-0.3,0-0.4,0.1c-0.3,0.1-0.6,0.1-0.9,0.2
		c-0.1,0-0.2,0-0.3,0.1c-0.3,0.1-0.5,0.2-0.8,0.3c-0.1,0.1-0.3,0.1-0.4,0.1c-0.2,0.1-0.4,0.2-0.6,0.3c-0.2,0.1-0.3,0.2-0.5,0.2
		c-0.2,0.1-0.3,0.2-0.5,0.3c-0.2,0.1-0.4,0.2-0.6,0.4c-0.1,0.1-0.2,0.2-0.3,0.2c-0.2,0.2-0.5,0.3-0.7,0.5c-0.1,0.1-0.1,0.1-0.2,0.2
		c-0.2,0.2-0.5,0.4-0.7,0.6c-0.1,0.1-0.2,0.3-0.4,0.4c-0.2,0.2-0.3,0.3-0.5,0.5c-0.3,0.3-0.5,0.7-0.8,1c0,0,0,0,0,0
		c0,0,0,0.1-0.1,0.1c-0.2,0.3-0.4,0.6-0.6,1c-0.1,0.1-0.1,0.2-0.2,0.4c-0.1,0.3-0.3,0.5-0.4,0.8c-0.1,0.2-0.1,0.3-0.2,0.5
		c-0.1,0.2-0.2,0.4-0.2,0.7c-0.1,0.2-0.1,0.4-0.2,0.7c0,0.2-0.1,0.4-0.1,0.6c-0.1,0.3-0.1,0.6-0.1,0.8c0,0.1,0,0.3-0.1,0.4
		c0,0.4,0,0.7-0.1,1.1c0,0.1,0,0.1,0,0.2v0c0,0,0,0,0,0v516c0,0,0,0,0,0v0c0,0.1,0,0.1,0,0.2c0,0.4,0,0.7,0.1,1.1
		c0,0.1,0,0.3,0.1,0.4c0,0.3,0.1,0.6,0.1,0.8c0,0.2,0.1,0.4,0.1,0.6c0.1,0.2,0.1,0.4,0.2,0.7c0.1,0.2,0.2,0.4,0.2,0.7
		c0.1,0.2,0.1,0.3,0.2,0.5c0.1,0.3,0.2,0.5,0.4,0.8c0.1,0.1,0.1,0.2,0.2,0.4c0.2,0.3,0.4,0.7,0.6,1c0,0,0,0.1,0.1,0.1c0,0,0,0,0,0
		c0.3,0.4,0.6,0.8,0.9,1.2c0.1,0.1,0.2,0.2,0.3,0.3c0.2,0.2,0.5,0.5,0.7,0.7c0.1,0.1,0.3,0.3,0.4,0.4c0.3,0.2,0.5,0.4,0.8,0.6
		c0.1,0.1,0.2,0.2,0.3,0.3c0.4,0.3,0.8,0.5,1.2,0.7c0.1,0.1,0.2,0.1,0.3,0.1c0.3,0.2,0.7,0.3,1,0.5c0.1,0.1,0.3,0.1,0.4,0.1
		c0.3,0.1,0.7,0.2,1,0.3c0.1,0,0.3,0.1,0.4,0.1c0.4,0.1,0.7,0.1,1.1,0.2c0.1,0,0.3,0,0.4,0.1c0.4,0,0.9,0.1,1.4,0.1c0,0,0.1,0,0.1,0
		c0,0,0,0,0,0h774.2c7.1,0,12.9-5.8,12.9-12.9V145.9C809.3,138.8,803.6,133,796.4,133z M386.1,404L35.1,638V170L386.1,404z
		 M64.9,649.2l348.4-232.3h280c7.1,0,12.9-5.8,12.9-12.9s-5.8-12.9-12.9-12.9h-280L64.9,158.8h718.7v232.3h-38.7
		c-7.1,0-12.9,5.8-12.9,12.9s5.8,12.9,12.9,12.9h38.7v232.3H64.9z"/>
</g>
<rect x="675.3" y="391" width="76.5" height="25.8"/>
</svg>
